<svg width="33" height="32" viewBox="0 0 33 32" fill="none" xmlns="http://www.w3.org/2000/svg">
<rect x="0.608398" width="32" height="32" rx="16" fill="white" fill-opacity="0.12"/>
<rect x="1.28775" y="0.679348" width="30.6413" height="30.6413" rx="15.3207" stroke="white" stroke-opacity="0.1" stroke-width="1.3587"/>
<path d="M21.8464 11.5537C20.9598 11.1403 19.9998 10.8403 18.9998 10.667C18.9822 10.6672 18.9654 10.6744 18.9531 10.687C18.8331 10.907 18.6931 11.1937 18.5998 11.4137C17.5391 11.2538 16.4604 11.2538 15.3998 11.4137C15.3064 11.187 15.1664 10.907 15.0398 10.687C15.0331 10.6737 15.0131 10.667 14.9931 10.667C13.9931 10.8403 13.0398 11.1403 12.1464 11.5537C12.1398 11.5537 12.1331 11.5603 12.1264 11.567C10.3131 14.2803 9.81309 16.9203 10.0598 19.5337C10.0598 19.547 10.0664 19.5603 10.0798 19.567C11.2798 20.447 12.4331 20.9803 13.5731 21.3337C13.5931 21.3403 13.6131 21.3337 13.6198 21.3203C13.8864 20.9537 14.1264 20.567 14.3331 20.1603C14.3464 20.1337 14.3331 20.107 14.3064 20.1003C13.9264 19.9537 13.5664 19.7803 13.2131 19.5803C13.1864 19.567 13.1864 19.527 13.2064 19.507C13.2798 19.4537 13.3531 19.3937 13.4264 19.3403C13.4398 19.327 13.4598 19.327 13.4731 19.3337C15.7664 20.3803 18.2398 20.3803 20.5064 19.3337C20.5198 19.327 20.5398 19.327 20.5531 19.3403C20.6264 19.4003 20.6998 19.4537 20.7731 19.5137C20.7998 19.5337 20.7998 19.5737 20.7664 19.587C20.4198 19.7937 20.0531 19.9603 19.6731 20.107C19.6464 20.1137 19.6398 20.147 19.6464 20.167C19.8598 20.5737 20.0998 20.9603 20.3598 21.327C20.3798 21.3337 20.3998 21.3403 20.4198 21.3337C21.5664 20.9803 22.7198 20.447 23.9198 19.567C23.9331 19.5603 23.9398 19.547 23.9398 19.5337C24.2331 16.5137 23.4531 13.8937 21.8731 11.567C21.8664 11.5603 21.8598 11.5537 21.8464 11.5537ZM14.6798 17.9403C13.9931 17.9403 13.4198 17.307 13.4198 16.527C13.4198 15.747 13.9798 15.1137 14.6798 15.1137C15.3864 15.1137 15.9464 15.7537 15.9398 16.527C15.9398 17.307 15.3798 17.9403 14.6798 17.9403ZM19.3264 17.9403C18.6398 17.9403 18.0664 17.307 18.0664 16.527C18.0664 15.747 18.6264 15.1137 19.3264 15.1137C20.0331 15.1137 20.5931 15.7537 20.5864 16.527C20.5864 17.307 20.0331 17.9403 19.3264 17.9403Z" fill="#8C71FA"/>
</svg>
