<svg width="19" height="18" viewBox="0 0 19 18" fill="none" xmlns="http://www.w3.org/2000/svg">
<g id="icon-park:telegram">
<path id="Vector" d="M15.8799 2.74087C15.8799 2.74087 17.3369 2.17275 17.2155 3.55248C17.175 4.12061 16.8108 6.10905 16.5274 8.25982L15.5561 14.631C15.5561 14.631 15.4752 15.5643 14.7467 15.7266C14.0182 15.8889 12.9255 15.1585 12.7231 14.9962C12.5612 14.8744 9.68771 13.0483 8.67588 12.1555C8.39257 11.9121 8.06879 11.4251 8.71634 10.857L12.9659 6.79894C13.4516 6.31196 13.9372 5.17571 11.9136 6.55545L6.24757 10.4106C6.24757 10.4106 5.60002 10.8164 4.38588 10.4512L1.75519 9.63956C1.75519 9.63956 0.78386 9.03086 2.44321 8.42212C6.49042 6.51484 11.4685 4.56697 15.8799 2.74087Z" fill="white"/>
</g>
</svg>
