<svg width="33" height="32" viewBox="0 0 33 32" fill="none" xmlns="http://www.w3.org/2000/svg">
<rect x="0.304199" width="32" height="32" rx="16" fill="white" fill-opacity="0.12"/>
<rect x="0.983547" y="0.679348" width="30.6413" height="30.6413" rx="15.3207" stroke="white" stroke-opacity="0.1" stroke-width="1.3587"/>
<path d="M22.5322 9.74087C22.5322 9.74087 23.9892 9.17275 23.8678 10.5525C23.8273 11.1206 23.4631 13.109 23.1798 15.2598L22.2085 21.631C22.2085 21.631 22.1275 22.5643 21.399 22.7266C20.6705 22.8889 19.5778 22.1585 19.3754 21.9962C19.2135 21.8744 16.34 20.0483 15.3282 19.1555C15.0449 18.9121 14.7211 18.4251 15.3687 17.857L19.6183 13.7989C20.1039 13.312 20.5896 12.1757 18.566 13.5554L12.8999 17.4106C12.8999 17.4106 12.2524 17.8164 11.0382 17.4512L8.40753 16.6396C8.40753 16.6396 7.4362 16.0309 9.09556 15.4221C13.1428 13.5148 18.1208 11.567 22.5322 9.74087Z" fill="white"/>
</svg>
